<svg xmlns="http://www.w3.org/2000/svg" viewBox="0 0 512 512">
  <defs>
    <linearGradient id="g1" x1="0%" y1="0%" x2="100%" y2="100%">
      <stop offset="0%" stop-color="#00e5ff"/>
      <stop offset="50%" stop-color="#2979ff"/>
      <stop offset="100%" stop-color="#7c4dff"/>
    </linearGradient>
    <linearGradient id="g2" x1="0%" y1="0%" x2="100%" y2="100%">
      <stop offset="0%" stop-color="#00e5ff"/>
      <stop offset="100%" stop-color="#2979ff"/>
    </linearGradient>
  </defs>
  <!-- Outer arc -->
  <path d="M256 56C145.5 56 56 145.5 56 256s89.5 200 200 200c50.7 0 97-18.9 132.3-50l-42-42C320.4 387.5 289.5 400 256 400c-79.5 0-144-64.5-144-144s64.5-144 144-144c79.5 0 144 64.5 144 144 0 33.5-11.5 64.4-30.8 88.8l42.5 42.5C441.2 353.5 456 307.2 456 256c0-110.5-89.5-200-200-200z" fill="url(#g1)"/>
  <!-- Inner ring -->
  <circle cx="256" cy="256" r="90" fill="none" stroke="url(#g2)" stroke-width="44"/>
  <!-- Diagonal tail -->
  <path d="M320 320l100 100" stroke="url(#g1)" stroke-width="44" stroke-linecap="round"/>
  <!-- Small circuit detail -->
  <rect x="360" y="120" width="16" height="16" rx="2" fill="#00e5ff"/>
  <line x1="368" y1="136" x2="368" y2="170" stroke="#00e5ff" stroke-width="3"/>
  <line x1="368" y1="120" x2="340" y2="120" stroke="#00e5ff" stroke-width="3"/>
</svg>
